<svg width="22" height="19" viewBox="0 0 22 19" fill="none" xmlns="http://www.w3.org/2000/svg">
<path d="M0 1.8125C0 0.982422 0.683594 0.25 1.5625 0.25H20.3125C21.1426 0.25 21.875 0.982422 21.875 1.8125C21.875 2.69141 21.1426 3.375 20.3125 3.375H1.5625C0.683594 3.375 0 2.69141 0 1.8125ZM0 9.625C0 8.79492 0.683594 8.0625 1.5625 8.0625H20.3125C21.1426 8.0625 21.875 8.79492 21.875 9.625C21.875 10.5039 21.1426 11.1875 20.3125 11.1875H1.5625C0.683594 11.1875 0 10.5039 0 9.625ZM21.875 17.4375C21.875 18.3164 21.1426 19 20.3125 19H1.5625C0.683594 19 0 18.3164 0 17.4375C0 16.6074 0.683594 15.875 1.5625 15.875H20.3125C21.1426 15.875 21.875 16.6074 21.875 17.4375Z" fill="white"/>
</svg>
